<mxfile host="app.diagrams.net" modified="2022-10-24T13:16:39.646Z" agent="5.0 (Windows NT 10.0; Win64; x64) AppleWebKit/537.36 (KHTML, like Gecko) Chrome/106.0.0.0 Safari/537.36 Edg/106.0.1370.52" etag="o3OD2w_rf3QOpBhsThcu" version="20.5.0" type="github">
  <diagram id="5VebHm9bn1DvfAVmsGHe" name="第 1 页">
    <mxGraphModel dx="1616" dy="896" grid="1" gridSize="10" guides="1" tooltips="1" connect="1" arrows="1" fold="1" page="1" pageScale="1" pageWidth="827" pageHeight="1169" math="0" shadow="0">
      <root>
        <mxCell id="0" />
        <mxCell id="1" parent="0" />
        <mxCell id="tpwx3SOw6HQHS5hW4aOe-1" value="consumer.poll()" style="rounded=0;whiteSpace=wrap;html=1;horizontal=1;verticalAlign=top;" parent="1" vertex="1">
          <mxGeometry x="130" y="310" width="130" height="830" as="geometry" />
        </mxCell>
        <mxCell id="tpwx3SOw6HQHS5hW4aOe-2" value="metadata&lt;br&gt;&lt;br&gt;&lt;br&gt;" style="rounded=0;whiteSpace=wrap;html=1;verticalAlign=top;" parent="1" vertex="1">
          <mxGeometry x="220" y="440" width="140" height="520" as="geometry" />
        </mxCell>
        <mxCell id="tpwx3SOw6HQHS5hW4aOe-4" value="&lt;span style=&quot;font-size: 11px;&quot;&gt;acquireAndEnsureOpen();&lt;br&gt;为了保证消费的顺序性，加一个cas锁&lt;br&gt;&lt;/span&gt;" style="rounded=0;whiteSpace=wrap;html=1;fontFamily=Helvetica;fontSize=11;" parent="1" vertex="1">
          <mxGeometry x="240" y="340" width="150" height="60" as="geometry" />
        </mxCell>
        <mxCell id="tpwx3SOw6HQHS5hW4aOe-7" style="rounded=0;orthogonalLoop=1;jettySize=auto;html=1;exitX=1;exitY=0.5;exitDx=0;exitDy=0;fontFamily=Helvetica;fontSize=11;horizontal=1;entryX=-0.024;entryY=0.431;entryDx=0;entryDy=0;entryPerimeter=0;" parent="1" source="tpwx3SOw6HQHS5hW4aOe-5" target="tpwx3SOw6HQHS5hW4aOe-6" edge="1">
          <mxGeometry relative="1" as="geometry">
            <mxPoint x="360" y="496.36" as="sourcePoint" />
            <mxPoint x="530" y="449.99636363636364" as="targetPoint" />
          </mxGeometry>
        </mxCell>
        <mxCell id="tpwx3SOw6HQHS5hW4aOe-8" value="send&amp;nbsp;" style="edgeLabel;html=1;align=center;verticalAlign=middle;resizable=0;points=[];fontSize=11;fontFamily=Helvetica;" parent="tpwx3SOw6HQHS5hW4aOe-7" vertex="1" connectable="0">
          <mxGeometry x="-0.1843" y="1" relative="1" as="geometry">
            <mxPoint as="offset" />
          </mxGeometry>
        </mxCell>
        <mxCell id="tpwx3SOw6HQHS5hW4aOe-33" style="edgeStyle=none;rounded=0;orthogonalLoop=1;jettySize=auto;html=1;exitX=0.5;exitY=1;exitDx=0;exitDy=0;entryX=0.5;entryY=0;entryDx=0;entryDy=0;fontFamily=Helvetica;fontSize=11;" parent="1" source="tpwx3SOw6HQHS5hW4aOe-5" target="tpwx3SOw6HQHS5hW4aOe-29" edge="1">
          <mxGeometry relative="1" as="geometry" />
        </mxCell>
        <mxCell id="tpwx3SOw6HQHS5hW4aOe-5" value="&lt;span style=&quot;font-size: 11px;&quot;&gt;lookupCoordinator&lt;/span&gt;" style="rounded=0;whiteSpace=wrap;html=1;fontFamily=Helvetica;fontSize=11;" parent="1" vertex="1">
          <mxGeometry x="230" y="470" width="120" height="70" as="geometry" />
        </mxCell>
        <mxCell id="tpwx3SOw6HQHS5hW4aOe-6" value="找到最小负载broker" style="rounded=0;whiteSpace=wrap;html=1;fontFamily=Helvetica;fontSize=11;" parent="1" vertex="1">
          <mxGeometry x="500" y="380" width="100" height="60" as="geometry" />
        </mxCell>
        <mxCell id="tpwx3SOw6HQHS5hW4aOe-14" style="edgeStyle=none;rounded=0;orthogonalLoop=1;jettySize=auto;html=1;exitX=1;exitY=0.5;exitDx=0;exitDy=0;fontFamily=Helvetica;fontSize=11;" parent="1" source="tpwx3SOw6HQHS5hW4aOe-12" target="tpwx3SOw6HQHS5hW4aOe-17" edge="1">
          <mxGeometry relative="1" as="geometry" />
        </mxCell>
        <mxCell id="tpwx3SOw6HQHS5hW4aOe-12" value="FIND_COORDINATOR" style="rounded=0;whiteSpace=wrap;html=1;fontFamily=Helvetica;fontSize=11;" parent="1" vertex="1">
          <mxGeometry x="550" y="350" width="150" height="40" as="geometry" />
        </mxCell>
        <mxCell id="tpwx3SOw6HQHS5hW4aOe-26" style="edgeStyle=none;rounded=0;orthogonalLoop=1;jettySize=auto;html=1;exitX=0;exitY=0.5;exitDx=0;exitDy=0;entryX=0.5;entryY=1;entryDx=0;entryDy=0;fontFamily=Helvetica;fontSize=11;" parent="1" source="tpwx3SOw6HQHS5hW4aOe-13" target="tpwx3SOw6HQHS5hW4aOe-19" edge="1">
          <mxGeometry relative="1" as="geometry" />
        </mxCell>
        <mxCell id="tpwx3SOw6HQHS5hW4aOe-13" value="groupId.hashCode%&lt;br&gt;groupMetadataTopicPartitionCount" style="rounded=0;whiteSpace=wrap;html=1;fontFamily=Helvetica;fontSize=11;" parent="1" vertex="1">
          <mxGeometry x="900" y="280" width="200" height="70" as="geometry" />
        </mxCell>
        <mxCell id="tpwx3SOw6HQHS5hW4aOe-27" style="edgeStyle=none;rounded=0;orthogonalLoop=1;jettySize=auto;html=1;entryX=1;entryY=0.75;entryDx=0;entryDy=0;fontFamily=Helvetica;fontSize=11;" parent="1" source="tpwx3SOw6HQHS5hW4aOe-17" target="tpwx3SOw6HQHS5hW4aOe-5" edge="1">
          <mxGeometry relative="1" as="geometry" />
        </mxCell>
        <mxCell id="tpwx3SOw6HQHS5hW4aOe-28" value="response" style="edgeLabel;html=1;align=center;verticalAlign=middle;resizable=0;points=[];fontSize=11;fontFamily=Helvetica;" parent="tpwx3SOw6HQHS5hW4aOe-27" vertex="1" connectable="0">
          <mxGeometry x="-0.3161" relative="1" as="geometry">
            <mxPoint as="offset" />
          </mxGeometry>
        </mxCell>
        <mxCell id="tpwx3SOw6HQHS5hW4aOe-48" style="edgeStyle=none;rounded=0;orthogonalLoop=1;jettySize=auto;html=1;exitX=0;exitY=0.75;exitDx=0;exitDy=0;entryX=1;entryY=0.5;entryDx=0;entryDy=0;fontFamily=Helvetica;fontSize=11;" parent="1" source="tpwx3SOw6HQHS5hW4aOe-17" target="tpwx3SOw6HQHS5hW4aOe-44" edge="1">
          <mxGeometry relative="1" as="geometry" />
        </mxCell>
        <mxCell id="tpwx3SOw6HQHS5hW4aOe-49" style="edgeStyle=none;rounded=0;orthogonalLoop=1;jettySize=auto;html=1;exitX=0;exitY=0.75;exitDx=0;exitDy=0;entryX=1;entryY=0.5;entryDx=0;entryDy=0;fontFamily=Helvetica;fontSize=11;" parent="1" source="tpwx3SOw6HQHS5hW4aOe-17" target="tpwx3SOw6HQHS5hW4aOe-45" edge="1">
          <mxGeometry relative="1" as="geometry" />
        </mxCell>
        <mxCell id="tpwx3SOw6HQHS5hW4aOe-59" style="edgeStyle=none;rounded=0;orthogonalLoop=1;jettySize=auto;html=1;exitX=0;exitY=1;exitDx=0;exitDy=0;entryX=0.992;entryY=0.383;entryDx=0;entryDy=0;entryPerimeter=0;fontFamily=Helvetica;fontSize=11;" parent="1" source="tpwx3SOw6HQHS5hW4aOe-17" target="tpwx3SOw6HQHS5hW4aOe-60" edge="1">
          <mxGeometry relative="1" as="geometry" />
        </mxCell>
        <mxCell id="tpwx3SOw6HQHS5hW4aOe-17" value="&lt;span style=&quot;font-size: 11px;&quot;&gt;GroupCoodinator&lt;/span&gt;" style="rounded=0;whiteSpace=wrap;html=1;fontFamily=Helvetica;fontSize=11;" parent="1" vertex="1">
          <mxGeometry x="720" y="355" width="150" height="370" as="geometry" />
        </mxCell>
        <mxCell id="tpwx3SOw6HQHS5hW4aOe-22" style="edgeStyle=none;rounded=0;orthogonalLoop=1;jettySize=auto;html=1;exitX=0;exitY=0.5;exitDx=0;exitDy=0;entryX=1;entryY=0.5;entryDx=0;entryDy=0;fontFamily=Helvetica;fontSize=11;" parent="1" source="tpwx3SOw6HQHS5hW4aOe-19" target="tpwx3SOw6HQHS5hW4aOe-21" edge="1">
          <mxGeometry relative="1" as="geometry" />
        </mxCell>
        <mxCell id="tpwx3SOw6HQHS5hW4aOe-19" value="得到在consumer offsets这个topic下的分区id，" style="rounded=0;whiteSpace=wrap;html=1;fontFamily=Helvetica;fontSize=11;" parent="1" vertex="1">
          <mxGeometry x="850" y="140" width="90" height="80" as="geometry" />
        </mxCell>
        <mxCell id="tpwx3SOw6HQHS5hW4aOe-24" style="edgeStyle=none;rounded=0;orthogonalLoop=1;jettySize=auto;html=1;exitX=0.5;exitY=1;exitDx=0;exitDy=0;entryX=0.5;entryY=0;entryDx=0;entryDy=0;fontFamily=Helvetica;fontSize=11;" parent="1" source="tpwx3SOw6HQHS5hW4aOe-21" target="tpwx3SOw6HQHS5hW4aOe-23" edge="1">
          <mxGeometry relative="1" as="geometry" />
        </mxCell>
        <mxCell id="tpwx3SOw6HQHS5hW4aOe-21" value="broker&lt;br&gt;&lt;br&gt;leader" style="rounded=0;whiteSpace=wrap;html=1;fontFamily=Helvetica;fontSize=11;" parent="1" vertex="1">
          <mxGeometry x="700" y="130" width="90" height="80" as="geometry" />
        </mxCell>
        <mxCell id="tpwx3SOw6HQHS5hW4aOe-25" style="edgeStyle=none;rounded=0;orthogonalLoop=1;jettySize=auto;html=1;exitX=0.5;exitY=1;exitDx=0;exitDy=0;fontFamily=Helvetica;fontSize=11;" parent="1" source="tpwx3SOw6HQHS5hW4aOe-23" target="tpwx3SOw6HQHS5hW4aOe-17" edge="1">
          <mxGeometry relative="1" as="geometry" />
        </mxCell>
        <mxCell id="tpwx3SOw6HQHS5hW4aOe-23" value="endpoint" style="rounded=0;whiteSpace=wrap;html=1;fontFamily=Helvetica;fontSize=11;" parent="1" vertex="1">
          <mxGeometry x="745" y="250" width="125" height="60" as="geometry" />
        </mxCell>
        <mxCell id="tpwx3SOw6HQHS5hW4aOe-34" style="edgeStyle=none;rounded=0;orthogonalLoop=1;jettySize=auto;html=1;exitX=1;exitY=0.5;exitDx=0;exitDy=0;fontFamily=Helvetica;fontSize=11;" parent="1" source="tpwx3SOw6HQHS5hW4aOe-29" target="tpwx3SOw6HQHS5hW4aOe-17" edge="1">
          <mxGeometry relative="1" as="geometry" />
        </mxCell>
        <mxCell id="tpwx3SOw6HQHS5hW4aOe-35" value="tryConnect" style="edgeLabel;html=1;align=center;verticalAlign=middle;resizable=0;points=[];fontSize=11;fontFamily=Helvetica;" parent="tpwx3SOw6HQHS5hW4aOe-34" vertex="1" connectable="0">
          <mxGeometry x="-0.1051" y="1" relative="1" as="geometry">
            <mxPoint as="offset" />
          </mxGeometry>
        </mxCell>
        <mxCell id="tpwx3SOw6HQHS5hW4aOe-29" value="&lt;div&gt;&lt;span style=&quot;font-size: 11px;&quot;&gt;FindCoordinatorRes&lt;/span&gt;&lt;/div&gt;&lt;div&gt;&lt;span style=&quot;font-size: 11px;&quot;&gt;ponseHandler&lt;/span&gt;&lt;/div&gt;" style="rounded=0;whiteSpace=wrap;html=1;fontFamily=Helvetica;fontSize=11;" parent="1" vertex="1">
          <mxGeometry x="230" y="560" width="120" height="60" as="geometry" />
        </mxCell>
        <mxCell id="tpwx3SOw6HQHS5hW4aOe-37" style="edgeStyle=none;rounded=0;orthogonalLoop=1;jettySize=auto;html=1;entryX=-0.007;entryY=0.641;entryDx=0;entryDy=0;fontFamily=Helvetica;fontSize=11;entryPerimeter=0;" parent="1" source="tpwx3SOw6HQHS5hW4aOe-36" target="tpwx3SOw6HQHS5hW4aOe-17" edge="1">
          <mxGeometry relative="1" as="geometry" />
        </mxCell>
        <mxCell id="tpwx3SOw6HQHS5hW4aOe-38" value="JOIN GROUP" style="edgeLabel;html=1;align=center;verticalAlign=middle;resizable=0;points=[];fontSize=11;fontFamily=Helvetica;" parent="tpwx3SOw6HQHS5hW4aOe-37" vertex="1" connectable="0">
          <mxGeometry x="-0.1039" y="4" relative="1" as="geometry">
            <mxPoint as="offset" />
          </mxGeometry>
        </mxCell>
        <mxCell id="tpwx3SOw6HQHS5hW4aOe-39" value="第一个加入组中的就是leader" style="edgeLabel;html=1;align=center;verticalAlign=middle;resizable=0;points=[];fontSize=11;fontFamily=Helvetica;" parent="tpwx3SOw6HQHS5hW4aOe-37" vertex="1" connectable="0">
          <mxGeometry x="0.4676" y="-2" relative="1" as="geometry">
            <mxPoint as="offset" />
          </mxGeometry>
        </mxCell>
        <mxCell id="tpwx3SOw6HQHS5hW4aOe-78" value="要加锁" style="edgeLabel;html=1;align=center;verticalAlign=middle;resizable=0;points=[];fontSize=11;fontFamily=Helvetica;" parent="tpwx3SOw6HQHS5hW4aOe-37" vertex="1" connectable="0">
          <mxGeometry x="0.8341" y="-1" relative="1" as="geometry">
            <mxPoint as="offset" />
          </mxGeometry>
        </mxCell>
        <mxCell id="tpwx3SOw6HQHS5hW4aOe-36" value="&lt;div&gt;Join Group&lt;/div&gt;" style="rounded=0;whiteSpace=wrap;html=1;fontFamily=Helvetica;fontSize=11;" parent="1" vertex="1">
          <mxGeometry x="230" y="640" width="120" height="60" as="geometry" />
        </mxCell>
        <mxCell id="tpwx3SOw6HQHS5hW4aOe-51" style="edgeStyle=none;rounded=0;orthogonalLoop=1;jettySize=auto;html=1;exitX=1;exitY=0.5;exitDx=0;exitDy=0;entryX=0;entryY=0.5;entryDx=0;entryDy=0;fontFamily=Helvetica;fontSize=11;" parent="1" source="tpwx3SOw6HQHS5hW4aOe-44" target="tpwx3SOw6HQHS5hW4aOe-50" edge="1">
          <mxGeometry relative="1" as="geometry" />
        </mxCell>
        <mxCell id="tpwx3SOw6HQHS5hW4aOe-44" value="leader&lt;br&gt;&lt;br&gt;分配消费分区" style="rounded=0;whiteSpace=wrap;html=1;fontFamily=Helvetica;fontSize=11;verticalAlign=top;" parent="1" vertex="1">
          <mxGeometry x="340" y="710" width="120" height="60" as="geometry" />
        </mxCell>
        <mxCell id="tpwx3SOw6HQHS5hW4aOe-52" style="edgeStyle=none;rounded=0;orthogonalLoop=1;jettySize=auto;html=1;exitX=1;exitY=0.5;exitDx=0;exitDy=0;entryX=0;entryY=0.5;entryDx=0;entryDy=0;fontFamily=Helvetica;fontSize=11;" parent="1" source="tpwx3SOw6HQHS5hW4aOe-45" target="tpwx3SOw6HQHS5hW4aOe-50" edge="1">
          <mxGeometry relative="1" as="geometry" />
        </mxCell>
        <mxCell id="tpwx3SOw6HQHS5hW4aOe-45" value="follower" style="rounded=0;whiteSpace=wrap;html=1;fontFamily=Helvetica;fontSize=11;" parent="1" vertex="1">
          <mxGeometry x="294" y="1240" width="120" height="60" as="geometry" />
        </mxCell>
        <mxCell id="tpwx3SOw6HQHS5hW4aOe-47" value="consumer" style="rounded=0;whiteSpace=wrap;html=1;fontFamily=Helvetica;fontSize=11;" parent="1" vertex="1">
          <mxGeometry x="130" y="1240" width="120" height="60" as="geometry" />
        </mxCell>
        <mxCell id="tpwx3SOw6HQHS5hW4aOe-53" style="edgeStyle=none;rounded=0;orthogonalLoop=1;jettySize=auto;html=1;exitX=1;exitY=0.5;exitDx=0;exitDy=0;entryX=0.007;entryY=0.832;entryDx=0;entryDy=0;entryPerimeter=0;fontFamily=Helvetica;fontSize=11;" parent="1" source="tpwx3SOw6HQHS5hW4aOe-50" target="tpwx3SOw6HQHS5hW4aOe-17" edge="1">
          <mxGeometry relative="1" as="geometry" />
        </mxCell>
        <mxCell id="tpwx3SOw6HQHS5hW4aOe-50" value="SYN_GROUP" style="rounded=0;whiteSpace=wrap;html=1;fontFamily=Helvetica;fontSize=11;" parent="1" vertex="1">
          <mxGeometry x="505" y="725" width="90" height="30" as="geometry" />
        </mxCell>
        <mxCell id="tpwx3SOw6HQHS5hW4aOe-56" style="edgeStyle=none;rounded=0;orthogonalLoop=1;jettySize=auto;html=1;exitX=1;exitY=0.5;exitDx=0;exitDy=0;fontFamily=Helvetica;fontSize=11;" parent="1" source="tpwx3SOw6HQHS5hW4aOe-54" target="tpwx3SOw6HQHS5hW4aOe-55" edge="1">
          <mxGeometry relative="1" as="geometry" />
        </mxCell>
        <mxCell id="tpwx3SOw6HQHS5hW4aOe-54" value="updateFetchPositions" style="rounded=0;whiteSpace=wrap;html=1;fontFamily=Helvetica;fontSize=11;" parent="1" vertex="1">
          <mxGeometry x="225" y="810" width="120" height="50" as="geometry" />
        </mxCell>
        <mxCell id="tpwx3SOw6HQHS5hW4aOe-57" style="edgeStyle=none;rounded=0;orthogonalLoop=1;jettySize=auto;html=1;exitX=1;exitY=0.5;exitDx=0;exitDy=0;entryX=0;entryY=0.916;entryDx=0;entryDy=0;entryPerimeter=0;fontFamily=Helvetica;fontSize=11;" parent="1" source="tpwx3SOw6HQHS5hW4aOe-55" target="tpwx3SOw6HQHS5hW4aOe-17" edge="1">
          <mxGeometry relative="1" as="geometry" />
        </mxCell>
        <mxCell id="tpwx3SOw6HQHS5hW4aOe-58" value="LIST OFFSETS" style="edgeLabel;html=1;align=center;verticalAlign=middle;resizable=0;points=[];fontSize=11;fontFamily=Helvetica;" parent="tpwx3SOw6HQHS5hW4aOe-57" vertex="1" connectable="0">
          <mxGeometry x="-0.5735" y="-2" relative="1" as="geometry">
            <mxPoint y="-1" as="offset" />
          </mxGeometry>
        </mxCell>
        <mxCell id="tpwx3SOw6HQHS5hW4aOe-55" value="sendListOffsetRequest" style="rounded=0;whiteSpace=wrap;html=1;fontFamily=Helvetica;fontSize=11;" parent="1" vertex="1">
          <mxGeometry x="370" y="820" width="130" height="30" as="geometry" />
        </mxCell>
        <mxCell id="tpwx3SOw6HQHS5hW4aOe-60" value="subscriptions.seek&lt;br&gt;(partition,offsetData.offset);" style="rounded=0;whiteSpace=wrap;html=1;fontFamily=Helvetica;fontSize=11;" parent="1" vertex="1">
          <mxGeometry x="225" y="880" width="120" height="60" as="geometry" />
        </mxCell>
        <mxCell id="tpwx3SOw6HQHS5hW4aOe-61" value="fetch" style="rounded=0;whiteSpace=wrap;html=1;fontFamily=Helvetica;fontSize=11;verticalAlign=top;" parent="1" vertex="1">
          <mxGeometry x="222.5" y="990" width="147.5" height="220" as="geometry" />
        </mxCell>
        <mxCell id="tpwx3SOw6HQHS5hW4aOe-63" value="sendFetches" style="rounded=0;whiteSpace=wrap;html=1;fontFamily=Helvetica;fontSize=11;" parent="1" vertex="1">
          <mxGeometry x="240" y="1010" width="120" height="40" as="geometry" />
        </mxCell>
        <mxCell id="tpwx3SOw6HQHS5hW4aOe-66" value="completedFetches.add" style="rounded=0;whiteSpace=wrap;html=1;fontFamily=Helvetica;fontSize=11;" parent="1" vertex="1">
          <mxGeometry x="310" y="1040" width="130" height="40" as="geometry" />
        </mxCell>
        <mxCell id="tpwx3SOw6HQHS5hW4aOe-67" style="edgeStyle=none;rounded=0;orthogonalLoop=1;jettySize=auto;html=1;exitX=0.5;exitY=1;exitDx=0;exitDy=0;entryX=1;entryY=0.5;entryDx=0;entryDy=0;fontFamily=Helvetica;fontSize=11;" parent="1" source="tpwx3SOw6HQHS5hW4aOe-17" target="tpwx3SOw6HQHS5hW4aOe-66" edge="1">
          <mxGeometry relative="1" as="geometry" />
        </mxCell>
        <mxCell id="tpwx3SOw6HQHS5hW4aOe-64" style="edgeStyle=none;rounded=0;orthogonalLoop=1;jettySize=auto;html=1;entryX=0.25;entryY=1;entryDx=0;entryDy=0;fontFamily=Helvetica;fontSize=11;exitX=1;exitY=0.25;exitDx=0;exitDy=0;" parent="1" source="tpwx3SOw6HQHS5hW4aOe-63" target="tpwx3SOw6HQHS5hW4aOe-17" edge="1">
          <mxGeometry relative="1" as="geometry">
            <mxPoint x="360" y="1030" as="sourcePoint" />
          </mxGeometry>
        </mxCell>
        <mxCell id="tpwx3SOw6HQHS5hW4aOe-65" value="FETCH" style="edgeLabel;html=1;align=center;verticalAlign=middle;resizable=0;points=[];fontSize=11;fontFamily=Helvetica;" parent="tpwx3SOw6HQHS5hW4aOe-64" vertex="1" connectable="0">
          <mxGeometry x="-0.2091" y="3" relative="1" as="geometry">
            <mxPoint as="offset" />
          </mxGeometry>
        </mxCell>
        <mxCell id="tpwx3SOw6HQHS5hW4aOe-70" style="edgeStyle=none;rounded=0;orthogonalLoop=1;jettySize=auto;html=1;exitX=1;exitY=0.5;exitDx=0;exitDy=0;entryX=0;entryY=0.5;entryDx=0;entryDy=0;fontFamily=Helvetica;fontSize=11;" parent="1" source="tpwx3SOw6HQHS5hW4aOe-68" target="tpwx3SOw6HQHS5hW4aOe-69" edge="1">
          <mxGeometry relative="1" as="geometry" />
        </mxCell>
        <mxCell id="tpwx3SOw6HQHS5hW4aOe-68" value="fetchedRecords" style="rounded=0;whiteSpace=wrap;html=1;fontFamily=Helvetica;fontSize=11;" parent="1" vertex="1">
          <mxGeometry x="236.25" y="1090" width="120" height="30" as="geometry" />
        </mxCell>
        <mxCell id="tpwx3SOw6HQHS5hW4aOe-69" value="返回记录，并维护下一条要消费的offset" style="rounded=0;whiteSpace=wrap;html=1;fontFamily=Helvetica;fontSize=11;" parent="1" vertex="1">
          <mxGeometry x="550" y="1070" width="115" height="50" as="geometry" />
        </mxCell>
        <mxCell id="tpwx3SOw6HQHS5hW4aOe-75" style="edgeStyle=none;rounded=0;orthogonalLoop=1;jettySize=auto;html=1;exitX=1;exitY=0.5;exitDx=0;exitDy=0;fontFamily=Helvetica;fontSize=11;" parent="1" source="tpwx3SOw6HQHS5hW4aOe-71" target="tpwx3SOw6HQHS5hW4aOe-72" edge="1">
          <mxGeometry relative="1" as="geometry" />
        </mxCell>
        <mxCell id="tpwx3SOw6HQHS5hW4aOe-71" value="submit offset" style="rounded=0;whiteSpace=wrap;html=1;fontFamily=Helvetica;fontSize=11;" parent="1" vertex="1">
          <mxGeometry x="236.25" y="1160" width="120" height="30" as="geometry" />
        </mxCell>
        <mxCell id="tpwx3SOw6HQHS5hW4aOe-76" style="edgeStyle=none;rounded=0;orthogonalLoop=1;jettySize=auto;html=1;exitX=1;exitY=0.5;exitDx=0;exitDy=0;entryX=0.673;entryY=1;entryDx=0;entryDy=0;entryPerimeter=0;fontFamily=Helvetica;fontSize=11;" parent="1" source="tpwx3SOw6HQHS5hW4aOe-72" target="tpwx3SOw6HQHS5hW4aOe-17" edge="1">
          <mxGeometry relative="1" as="geometry" />
        </mxCell>
        <mxCell id="tpwx3SOw6HQHS5hW4aOe-77" value="OFFSET_COMMIT" style="edgeLabel;html=1;align=center;verticalAlign=middle;resizable=0;points=[];fontSize=11;fontFamily=Helvetica;" parent="tpwx3SOw6HQHS5hW4aOe-76" vertex="1" connectable="0">
          <mxGeometry x="-0.1542" y="-3" relative="1" as="geometry">
            <mxPoint as="offset" />
          </mxGeometry>
        </mxCell>
        <mxCell id="tpwx3SOw6HQHS5hW4aOe-72" value="sendOffsetCommitRequest" style="rounded=0;whiteSpace=wrap;html=1;fontFamily=Helvetica;fontSize=11;" parent="1" vertex="1">
          <mxGeometry x="580" y="1150" width="190" height="50" as="geometry" />
        </mxCell>
      </root>
    </mxGraphModel>
  </diagram>
</mxfile>
